<?xml version="1.0" standalone="no"?>
<!DOCTYPE svg PUBLIC "-//W3C//DTD SVG 1.1//EN" "http://www.w3.org/Graphics/SVG/1.1/DTD/svg11.dtd" >
<svg xmlns="http://www.w3.org/2000/svg">
<metadata>
This is a custom SVG webfont generated by Font Squirrel.
Copyright   : Copyright c 1985 1987 Adobe Systems Incorporated  All rights reservedHelvetica is a trademark of Allied Corporation
</metadata>
<defs>
<font id="HelveticaCondensedBold" horiz-adv-x="1024" >
<font-face units-per-em="2048" ascent="1638" descent="-410" />
<missing-glyph horiz-adv-x="512" />
<glyph unicode=" "  horiz-adv-x="512" />
<glyph unicode="&#x09;" horiz-adv-x="512" />
<glyph unicode="&#xa0;" horiz-adv-x="512" />
<glyph unicode="!" horiz-adv-x="681" d="M207 1106v430h266v-430q0 -211 -12 -354l-31 -355h-174q-4 72 -31 355q-19 197 -18 328v26zM209 0v270h266v-270h-266z" />
<glyph unicode="&#x22;" horiz-adv-x="681" d="M33 958v555h243v-555h-243zM408 958v555h243v-555h-243z" />
<glyph unicode="#" d="M63 477v201h201l23 188h-172v201h194l56 444h170l-54 -444h150l53 444h176l-55 -444h156v-201h-181l-22 -188h153v-201h-176l-59 -477h-174l57 477h-147l-60 -477h-172l58 477h-175zM436 678h146l24 188h-147z" />
<glyph unicode="$" d="M70 455h245q2 -137 15 -176q25 -82 114 -105v457q-197 129 -251 196q-102 119 -103 308q0 147 80 245q92 113 268 136v129h140v-129q343 -41 342 -377v-35h-238q0 86 -16 127q-25 59 -97 80v-408q383 -195 383 -483q0 -206 -86 -312q-88 -110 -288 -139v-223h-140v217 q-370 31 -370 439zM336 1157q0 -68 33 -123q18 -29 75 -90v367q-108 -17 -108 -154zM569 174q123 37 123 193q0 70 -43 137q-35 55 -80 84v-414z" />
<glyph unicode="%" horiz-adv-x="1705" d="M63 1132.5q0 182.5 48 260.5q68 115 266 114q201 0 270 -114q47 -76 47 -260.5t-47 -260.5q-70 -115 -270 -114q-199 0 -266 114q-48 78 -48 260.5zM260 1132.5q0 -122.5 16 -163.5q23 -61 105 -62q80 0 102 62q14 39 14.5 163.5t-14.5 163.5q-23 61 -102 62 q-82 0 -105 -62q-16 -41 -16 -163.5zM428 -31l688 1567h144l-687 -1567h-145zM1016 375q0 182 47 260q68 115 266 115q201 0 270 -115q45 -76 45.5 -260.5t-45.5 -259.5q-70 -115 -270 -115q-199 0 -266 115q-47 78 -47 260zM1212 375q0 -125 15 -164q25 -61 104.5 -61 t102.5 61q14 39 14 164t-14 164q-23 61 -103 61t-104 -61q-15 -39 -15 -164z" />
<glyph unicode="&#x26;" horiz-adv-x="1366" d="M129 426q0 160 80 281q66 100 211 202q-121 209 -121 332q0 168 113 256q96 76 241 76q129 0 224 -84q100 -92 100 -236q0 -240 -234 -383l193 -333q41 127 47 280h227q0 -285 -135 -516l185 -307h-308l-55 102q-139 -133 -358 -133q-176 0 -293 133t-117 330zM395 463 q0 -94 56 -176q61 -92 151 -92q92 0 186 84l-247 423q-45 -18 -92 -79q-54 -76 -54 -160zM545 1268q0 -45 30 -107q25 -51 52 -100q119 94 118 186q0 51 -30.5 85t-71.5 36h-7q-91 1 -91 -100z" />
<glyph unicode="'" horiz-adv-x="512" d="M135 958v555h244v-555h-244z" />
<glyph unicode="(" horiz-adv-x="681" d="M106 623q0 541 300 950h165q-102 -199 -143 -399q-51 -246 -51 -635q0 -287 41 -486q43 -209 157 -459h-169q-172 291 -232 490q-68 222 -68 539z" />
<glyph unicode=")" horiz-adv-x="681" d="M106 1573h170q172 -291 232 -490q68 -221 67 -538q0 -541 -299 -951h-165q102 199 143 400q51 246 51 635q0 287 -41 485q-43 209 -158 459z" />
<glyph unicode="*" d="M162 1194l49 156l182 -58q12 -2 37 -12q-2 12 -2 41v190h164v-190q0 -25 -2 -37l43 14l176 60l55 -160l-184 -55q-27 -8 -37 -8q18 -18 29 -37l110 -154l-135 -98l-110 158q-10 14 -19 30q-6 -12 -24 -39l-111 -151l-135 96l112 156q6 10 23 28q-23 6 -41 13z" />
<glyph unicode="+" d="M53 397v226h346v385h226v-385h348v-226h-348v-397h-226v397h-346z" />
<glyph unicode="," horiz-adv-x="681" d="M207 0v270h270v-264q0 -270 -270 -303v90q72 8 109 66q34 52 35 125q0 8 -1 16h-143z" />
<glyph unicode="-" horiz-adv-x="681" d="M98 522v236h488v-236h-488z" />
<glyph unicode="." horiz-adv-x="681" d="M207 0v270h270v-270h-270z" />
<glyph unicode="/" horiz-adv-x="569" d="M-23 -193l484 1729h178l-483 -1729h-179z" />
<glyph unicode="0" d="M98 412v690q0 440 416 440q414 0 414 -440v-690q0 -442 -416 -443q-414 1 -414 443zM385 412q0 -217 125 -217q131 0 131 217v690q0 215 -131 215q-125 0 -125 -215v-690z" />
<glyph unicode="1" d="M90 1065v205q350 4 422 266h211v-1536h-287v1065h-346z" />
<glyph unicode="2" d="M66 0q4 139 24 260q31 178 270 432l140 148q82 86 106 131q35 63 35 164q0 182 -137 182q-102 0 -133 -76q-18 -45 -23 -217h-268v43q0 190 53 289q97 186 377 186h6q184 -2 298 -108.5t114 -288.5q0 -231 -183 -420l-225 -233q-147 -154 -149 -267h534v-225h-839z" />
<glyph unicode="3" d="M57 420v90h269q8 -182 14 -205q31 -111 147 -110q104 0 136 92q18 51 18 198q0 123 -33 162q-51 61 -258 62v225q45 2 95.5 4t84.5 18q88 41 88 189q0 172 -137 172t-137 -121v-109h-268q-2 27 -2 52q0 403 405 403q418 0 418 -395q0 -117 -45 -201q-53 -100 -156 -117 v-4q106 -12 168 -104q64 -95 64 -258v-10q-4 -483 -447 -484q-424 0 -424 451z" />
<glyph unicode="4" d="M47 311v226l465 974h319v-974h132v-226h-132v-311h-286v311h-498zM258 537h287v622h-4z" />
<glyph unicode="5" d="M76 483h268q6 -150 14 -182q29 -100 129 -106q6 0 12 -1q101 0 132 101q14 45 20 221q1 21 1 40q0 141 -40 204q-39 59 -125 59q-55 0 -96 -31.5t-47 -80.5h-254l39 804h739v-225h-518l-18 -328q88 86 223 86q383 0 383 -530q0 -274 -90 -403q-100 -141 -334 -142 q-252 0 -350 125q-88 110 -88 377v12z" />
<glyph unicode="6" d="M86 922q0 354 109 493q98 127 335 127q178 0 277 -82q103 -85 103 -246q0 -9 -1 -18h-266q-6 121 -109 121h-14q-104 -8 -137 -113q-14 -51 -14 -174v-98q49 51 80 69q57 33 145 33q346 0 346 -481q0 -303 -88 -436q-96 -147 -336 -148q-244 0 -344 156q-86 135 -86 428 v369zM373 532v-35q0 -156 16 -208q27 -95 120 -95q6 0 11 1q100 6 123 98q10 43 10 239q0 137 -12 181q-27 96 -127 96q-94 0 -123 -90q-18 -54 -18 -187z" />
<glyph unicode="7" d="M66 1511h864v-206q-178 -315 -287 -744q-80 -313 -90 -561h-295q27 391 244 938q82 207 176 348h-612v225z" />
<glyph unicode="8" d="M84 434q0 168 48 256t167 141q-98 53 -135 121q-45 80 -45 236q0 141 90 239q106 115 307 115q209 0 303 -100q88 -94 88 -295q0 -129 -39 -197q-43 -78 -155 -125q127 -29 178 -122t51 -267q0 -467 -420 -467q-238 0 -342 117q-96 108 -96 348zM371 426q0 -119 20 -162 q29 -68 125 -69q94 6 123 84q16 47 16 172q0 137 -20 190q-31 80 -123 80q-100 0 -127 -84q-14 -47 -14 -211zM385 1124q0 -199 129 -198q82 0 111 75q16 45 16 144q0 172 -123 172q-133 0 -133 -193z" />
<glyph unicode="9" d="M86 958q0 303 88 437q98 147 338 147q242 0 342 -156q86 -135 86 -428v-368q0 -354 -106 -494q-98 -127 -336 -127q-178 0 -277 82q-103 85 -103 246q0 9 1 18h266q4 -121 121 -120h4q104 2 135 110q14 49 14 176v99q-49 -51 -79 -70q-57 -33 -146 -33q-348 0 -348 481z M373 979q0 -137 12 -180q27 -96 127 -97q94 0 123 91q18 53 18 186q0 19 1 36q0 156 -17 208q-27 95 -120 94h-11q-100 -6 -123 -98q-10 -43 -10 -240z" />
<glyph unicode=":" horiz-adv-x="569" d="M150 0v270h270v-270h-270zM150 868v271h270v-271h-270z" />
<glyph unicode=";" horiz-adv-x="569" d="M150 0v270h270v-264q0 -270 -270 -303v90q72 8 109 66q34 52 34 125v16h-143zM150 868v271h270v-271h-270z" />
<glyph unicode="&#x3c;" d="M86 412v202l854 465v-227l-608 -342l608 -332v-227z" />
<glyph unicode="=" d="M53 197v225h920v-225h-920zM53 596v225h920v-225h-920z" />
<glyph unicode="&#x3e;" d="M86 -49v227l608 332l-608 342v227l854 -465v-202z" />
<glyph unicode="?" d="M106 1133q-1 24 -1 46q0 393 401 394q182 0 288.5 -102.5t106.5 -278.5q0 -109 -35 -191q-29 -66 -106 -163q-60 -61 -142 -156q-74 -84 -73 -270h-240v18q0 41 6 123q10 123 80 225l148 187q47 63 63 107t16 122q0 166 -116 166q-88 0 -115 -47q-18 -35 -21.5 -85 t-5.5 -95h-254zM301 0v266h260v-266h-260z" />
<glyph unicode="@" horiz-adv-x="1705" d="M78 774q0 340 235.5 569.5t577.5 229.5q297 0 500 -172q238 -201 237 -475q0 -268 -164 -437q-66 -68 -170 -120q-113 -59 -198 -60q-35 0 -62.5 28t-27.5 75q0 14 4 30q-137 -125 -256 -125q-158 0 -254 111q-92 104 -92 266q0 197 118 338q125 150 316 150 q172 0 260 -125l22 108h201l-108 -630q-4 -27 8 -38.5t32 -4.5q61 18 140 131q68 96 71 243q0 9 1 19q0 243 -157 387q-163 150 -427 149q-283 0 -465 -182t-182 -465q0 -293 194.5 -476t487.5 -183q213 0 419 188h197q-246 -340 -633 -340q-346 0 -585.5 232.5 t-239.5 578.5zM633 731q-1 -12 -1 -23q0 -79 38 -133q47 -70 137 -69q94 0 160 86q57 74 65 166l2 34q0 78 -33 132q-43 68 -120 68q-8 0 -17 -1q-94 -8 -159.5 -84t-71.5 -176z" />
<glyph unicode="A" horiz-adv-x="1138" d="M18 0l367 1536h387l348 -1536h-307l-76 389h-336l-75 -389h-308zM446 614h246l-78 437q-18 100 -28 213q-2 35 -11 102h-4q-8 -104 -39 -315z" />
<glyph unicode="B" horiz-adv-x="1138" d="M133 0v1536h463q238 0 326 -113q76 -96 75 -276q0 -254 -184 -322v-4q223 -31 223 -356q0 -121 -20 -189q-45 -145 -134 -210.5t-243 -65.5h-506zM420 225h61q135 0 172 17q88 39 88 213q0 131 -39 180q-45 55 -172 55h-110v-465zM420 915h53q166 0 205 54q31 41 31 166 q0 94 -29 131q-35 45 -127 45h-133v-396z" />
<glyph unicode="C" horiz-adv-x="1138" d="M113 672v219q0 348 80 489q107 193 415 193h6q387 -2 420 -397q7 -74 7 -105q0 -8 -1 -12h-282q-20 172 -23 178q-31 104 -121 104q-145 0 -188 -149q-18 -66 -18 -238v-426q0 -334 206 -333q100 0 129 139q4 18 17 213h289l-7 -88q-12 -233 -100 -353 q-104 -143 -328 -143q-322 0 -428 201q-73 141 -73 508z" />
<glyph unicode="D" horiz-adv-x="1251" d="M147 0v1536h598q121 0 213.5 -78t126.5 -196q41 -137 41 -431q0 -315 -28 -456q-51 -244 -207 -334q-70 -41 -213 -41h-531zM434 225h125q182 0 232 123q41 100 40 457q0 283 -38 389q-45 117 -170 117h-189v-1086z" />
<glyph unicode="E" d="M131 0v1536h807v-225h-520v-387h479v-226h-479v-473h520v-225h-807z" />
<glyph unicode="F" d="M150 0v1536h813v-225h-527v-389h494v-226h-494v-696h-286z" />
<glyph unicode="G" horiz-adv-x="1251" d="M113 672v219q0 348 80 487q106 195 421 195q199 0 310 -66q127 -78 172 -266q10 -39 14 -186h-287q-4 145 -32 200q-45 84 -177 86q-145 2 -188 -147q-18 -66 -18 -240v-426q0 -334 206 -333q221 0 211 405h-198v225h477v-825h-215v176h-4q-76 -211 -271 -213 q-322 -4 -428 199q-73 141 -73 510z" />
<glyph unicode="H" horiz-adv-x="1251" d="M139 0v1536h287v-608h401v608h287v-1536h-287v702h-401v-702h-287z" />
<glyph unicode="I" horiz-adv-x="569" d="M141 0v1536h287v-1536h-287z" />
<glyph unicode="J" horiz-adv-x="909" d="M14 406q0 43 2 81h287v-190q0 -102 92 -102q70 0 90 49q14 31 15 112v1180h286v-1120q0 -129 -8 -178q-16 -111 -76 -175q-94 -100 -350 -100q-193 0 -295 158q-43 68 -43 285z" />
<glyph unicode="K" horiz-adv-x="1138" d="M139 0v1536h287v-682h4q39 106 180 369l168 313h324l-379 -659l397 -877h-323l-271 606l-100 -166v-440h-287z" />
<glyph unicode="L" d="M139 0v1536h287v-1311h532v-225h-819z" />
<glyph unicode="M" horiz-adv-x="1593" d="M137 0v1536h457l154 -713q33 -147 53 -354h4q12 127 45 354l154 713h454v-1536h-287v483q0 508 25 916h-4l-307 -1399h-174l-301 1399h-11q25 -408 25 -916v-483h-287z" />
<glyph unicode="N" horiz-adv-x="1251" d="M139 0v1536h297l223 -559q115 -289 205 -610h4q-43 586 -43 868v301h287v-1536h-299l-223 547q-109 266 -205 610h-4q45 -559 45 -868v-289h-287z" />
<glyph unicode="O" horiz-adv-x="1251" d="M125 672v219q0 346 80 487q109 195 422 195t424 -195q78 -141 77 -487v-219q0 -367 -73 -508q-106 -201 -428 -201t-428 201q-74 141 -74 508zM420 528q0 -334 207 -333q135 0 180 124q27 72 27 234v393q0 166 -23 244q-47 152 -184 151q-145 0 -189 -149 q-18 -66 -18 -238v-426z" />
<glyph unicode="P" horiz-adv-x="1138" d="M139 0v1536h586q190 0 283 -137q76 -113 75 -299q0 -250 -143 -365q-117 -92 -322 -92h-192v-643h-287zM426 868h154q209 0 208 240q0 125 -55 168q-47 35 -176 35h-131v-443z" />
<glyph unicode="Q" horiz-adv-x="1251" d="M125 672v219q0 346 80 487q109 195 422 195t424 -195q78 -141 77 -487v-219q0 -389 -84 -525l158 -157l-145 -135l-160 155q-94 -47 -270 -47q-322 0 -428 201q-74 141 -74 508zM420 528q0 -334 207 -333q39 0 73 10l-55 53l156 131l14 -14q16 74 16 153l3 426 q0 170 -19 238q-43 150 -188.5 149.5t-188.5 -149.5q-18 -66 -18 -238v-426z" />
<glyph unicode="R" horiz-adv-x="1251" d="M135 0v1536h543q436 0 436 -369q0 -338 -235 -370v-4q221 -29 221 -279q0 -446 61 -485v-29h-315q-25 68 -31 389q-2 109 -12 152q-23 82 -86 100q-70 20 -244 21h-51v-662h-287zM422 887h225q168 0 168 221q0 121 -49 166q-41 37 -131 37h-213v-424z" />
<glyph unicode="S" horiz-adv-x="1138" d="M100 430v113h287v-90q0 -258 180 -258q178 0 178 180q0 117 -114 203l-240 161q-143 98 -215 195.5t-72 232.5q0 406 451 406q295 0 393 -195q51 -98 53 -309h-276v19q0 111 -23 163q-37 90 -145 90q-158 0 -158 -143q0 -78 47 -131q31 -33 117 -88q256 -162 348 -252 q129 -127 129 -321q0 -213 -128 -328t-345 -115q-467 0 -467 467z" />
<glyph unicode="T" d="M35 1311v225h956v-225h-334v-1311h-286v1311h-336z" />
<glyph unicode="U" horiz-adv-x="1251" d="M139 465v1071h287v-1047q0 -141 29 -202q45 -92 176 -92q125 0 168 92q29 61 28 202v1047h287v-1071q0 -264 -102 -379q-111 -123 -383 -123q-274 0 -387 123q-103 115 -103 379z" />
<glyph unicode="V" horiz-adv-x="1138" d="M43 1536h307l180 -985q20 -113 35 -262q12 -129 13 -127h4q0 -2 12 127q12 119 35 262l162 985h307l-332 -1536h-383z" />
<glyph unicode="W" horiz-adv-x="1705" d="M49 1536h297l129 -838q37 -236 51 -503h4q18 197 66 546l139 795h238l153 -795q14 -74 64 -546h4q14 168 53 503l115 838h297l-285 -1536h-344l-115 606q-18 96 -34 244q-12 123 -27 246h-4q-16 -164 -62 -490l-102 -606h-344z" />
<glyph unicode="X" horiz-adv-x="1138" d="M23 0l376 778l-362 758h321l156 -348q53 -119 55 -193h6q6 74 95 281l110 260h324l-369 -758l381 -778h-328l-163 375q-41 94 -60 194h-4q-10 -92 -98 -286l-127 -283h-313z" />
<glyph unicode="Y" horiz-adv-x="1138" d="M25 1536h313l162 -403q51 -129 67 -236h4q16 92 95 291l137 348h313l-405 -883v-653h-287v653z" />
<glyph unicode="Z" d="M68 0v229l493 953q23 47 80 135q-37 -6 -111 -6h-430v225h840v-229l-494 -953q-23 -45 -79 -135q37 6 110 6h481v-225h-890z" />
<glyph unicode="[" horiz-adv-x="681" d="M166 -193v1729h407v-156h-182v-1417h182v-156h-407z" />
<glyph unicode="\" horiz-adv-x="512" d="M-182 1536h217l661 -1536h-217z" />
<glyph unicode="]" horiz-adv-x="681" d="M109 -37h182v1417h-182v156h407v-1729h-407v156z" />
<glyph unicode="^" d="M20 764l369 772h246l369 -772l-213 -96l-279 571l-279 -571z" />
<glyph unicode="_" d="M0 -125h1024v-119h-1024v119z" />
<glyph unicode="`" horiz-adv-x="681" d="M2 1587h317l193 -299h-207z" />
<glyph unicode="a" d="M86 315q0 176 119 275q66 51 276 139q137 57 137 148q0 20 -6 45q-14 59 -125 59q-84 0 -114 -45q-25 -34 -25 -111v-12h-254q-2 182 76 268q94 104 328 105q242 0 325 -115q55 -72 56 -227v-682q0 -78 22 -162h-252q-18 37 -17 89q0 14 1 30h-4q-96 -150 -234 -150 q-160 0 -234.5 84t-74.5 262zM352 322q0 -147 125 -148q102 0 127 113q8 39 8 196v125q-74 -45 -215 -147q-45 -37 -45 -139z" />
<glyph unicode="b" d="M131 0v1536h266v-369q0 -20 -2 -57q-4 -49 -4 -72h4q72 148 229 148h9q139 -2 203 -88q74 -96 73 -322v-418q-1 -389 -271 -389h-5q-166 2 -244 154h-4v-123h-254zM397 379q0 -205 129 -205q117 0 117 199v385q0 117 -14 155q-23 68 -107 68q-125 0 -125 -256v-346z" />
<glyph unicode="c" horiz-adv-x="909" d="M98 401v375q0 410 361 410q186 0 282 -105q82 -90 82 -235v-92h-266v129q0 98 -92 98q-70 0 -88 -76q-12 -45 -12 -182v-272q0 -139 4 -166q18 -100 96 -111q55 2 74 51q10 27 18 119v107h266v-107q0 -375 -364 -375q-361 0 -361 432z" />
<glyph unicode="d" d="M109 358v418q0 225 73 322q66 86 205 88h9q157 0 229 -148h4q-8 47 -8 103v395h266v-1536h-266v123h-5q-66 -152 -229 -154h-8q-270 0 -270 389zM375 373q0 -199 117 -199q129 0 129 205v346q0 256 -125 256q-84 0 -107 -68q-14 -39 -14 -155v-385z" />
<glyph unicode="e" d="M106 455v303q0 428 390 428q256 0 344 -135q66 -102 65 -373v-156h-532v-168q0 -180 139 -180q72 0 99 52q24 45 24 137v28h266q1 -17 1 -34q0 -388 -370 -388q-229 0 -327.5 115t-98.5 371zM373 727h266v100q0 88 -29.5 121t-109.5 33q-88 0 -113 -63q-14 -35 -14 -144 v-47z" />
<glyph unicode="f" horiz-adv-x="569" d="M43 961v194h102v115q0 152 68 211q61 55 213 55h100v-213q-41 12 -59 12q-55 0 -55 -45v-135h114v-194h-114v-961h-267v961h-102z" />
<glyph unicode="g" d="M109 356v418q0 227 73 324q66 86 203 88h9q170 0 222 -150h5v119h266v-1120q0 -203 -78 -301q-100 -123 -352 -123q-317 0 -336 260h266q0 -68 113 -68q133 0 133 181v133l-4 4q-72 -147 -244 -152h-6q-270 0 -270 387zM375 373q0 -199 117 -199q129 0 129 205v346 q0 256 -125 256q-84 0 -107 -68q-14 -39 -14 -155v-385z" />
<glyph unicode="h" d="M125 0v1536h266v-500h4q84 150 240 150q121 0 190 -70q76 -78 76 -225v-891h-266v791q0 96 -19 135q-25 53 -94 55h-7q-124 0 -124 -213v-768h-266z" />
<glyph unicode="i" horiz-adv-x="569" d="M152 0v1155h266v-1155h-266zM152 1294v242h266v-242h-266z" />
<glyph unicode="j" horiz-adv-x="569" d="M63 -184q8 -1 16 -1q83 0 83 62v1278h266v-1161q0 -172 -6 -205q-18 -121 -103 -160q-49 -24 -149 -23q-47 0 -107 5v205zM162 1294v242h266v-242h-266z" />
<glyph unicode="k" horiz-adv-x="909" d="M98 0v1536h267v-694q0 -47 -5 -146h5l251 459h291l-291 -465l283 -690h-297l-166 471l-71 -119v-352h-267z" />
<glyph unicode="l" horiz-adv-x="569" d="M152 0v1536h266v-1536h-266z" />
<glyph unicode="m" horiz-adv-x="1593" d="M135 0v1155h266v-119h5q68 143 253 150h10q79 0 144 -33q82 -41 94 -117q80 150 269 150q139 0 215 -76q68 -68 67 -170v-940h-266v780q0 98 -21 142q-27 60 -97 59h-9q-88 -4 -117 -76q-18 -43 -18 -145v-760h-266v795q0 94 -19 133q-28 53 -107 53h-6q-86 -2 -112 -63 q-18 -43 -19 -158v-760h-266z" />
<glyph unicode="n" d="M125 0v1155h266v-119h4q68 150 240 150q121 0 190 -70q76 -78 76 -225v-891h-266v770q0 96 -19 135q-25 53 -94 56h-7q-124 0 -124 -213v-748h-266z" />
<glyph unicode="o" d="M109 537q2 358 53 473q82 176 354 176q268 0 348 -176q49 -113 51 -473q0 -9 1 -18q0 -305 -70 -417q-84 -133 -330 -133q-252 0 -336 133q-72 112 -72 417q1 9 1 18zM375 762v-385q0 -117 22 -154q29 -49 119 -49q86 0 113 49q20 37 20 154v385q0 109 -16 149 q-29 70 -117 70q-94 0 -123 -70q-18 -40 -18 -149z" />
<glyph unicode="p" d="M119 -387v1542h266v-121h4q66 152 223 152h9q137 -2 202 -90q74 -96 74 -324v-418q0 -385 -268 -385h-8q-162 2 -244 150h-4v-506h-254zM385 379q0 -205 129 -205q117 0 117 199v385q0 117 -15 155q-23 68 -106 68q-125 0 -125 -256v-346z" />
<glyph unicode="q" d="M102 358v418q0 225 74 322q63 86 203 88h9q159 0 222 -148h4v117h267v-1540h-267v508h-4q-68 -152 -231 -154h-9q-268 0 -268 389zM369 373q0 -199 116 -199q129 0 129 205v346q0 256 -125 256q-84 0 -106 -68q-14 -39 -14 -155v-385z" />
<glyph unicode="r" horiz-adv-x="681" d="M123 0v1155h256v-205h4q45 113 104 164q68 55 166 62v-316q-29 2 -55 2q-209 0 -209 -194v-668h-266z" />
<glyph unicode="s" horiz-adv-x="909" d="M55 326q0 27 2 55h267q-4 -33 -5 -62q-1 -98 43 -129q23 -16 84 -16q49 0 82 28.5t33 71.5q0 14 -4 29q-2 41 -47 80l-84 57l-145 101q-219 152 -220 364q0 133 103.5 207t294.5 74q371 0 371 -363q0 -10 -1 -20h-266q0 10 1 20q0 158 -124 158q-113 0 -112 -94 q0 -66 100 -133l217 -148q59 -39 113 -100q63 -74 69 -127q4 -41 4 -76q0 -334 -399 -334q-141 0 -239 66q-138 90 -138 291z" />
<glyph unicode="t" horiz-adv-x="569" d="M29 961v194h106v318h268v-318h113v-194h-113v-717q5 -41 76 -42q17 0 37 3v-209q-82 -10 -135 -10q-244 0 -244 192v783h-108z" />
<glyph unicode="u" d="M119 270v885h266v-790q0 -113 27 -154q35 -37 82 -37q82 0 108 82q14 45 14 150v749h267v-1155h-254v172h-4q-59 -201 -248 -203q-150 0 -209 78q-49 67 -49 223z" />
<glyph unicode="v" horiz-adv-x="909" d="M20 1155h287l113 -647q20 -115 37 -342h4q16 229 37 342l114 647h277l-266 -1155h-332z" />
<glyph unicode="w" horiz-adv-x="1366" d="M23 1155h280l94 -704q23 -168 23 -256h4q6 111 27 247l110 713h219l129 -709q20 -109 27 -247h6q0 78 23 256l88 700h268l-234 -1155h-290l-88 467q-18 100 -35 291h-8q-6 -160 -27 -275l-82 -483h-297z" />
<glyph unicode="x" horiz-adv-x="909" d="M16 0l306 590l-291 565h313l88 -209q12 -35 29 -104h4q6 31 33 108l94 205h295l-289 -559l295 -596h-299l-80 186q-43 102 -53 170h-4q-12 -76 -60 -184l-75 -172h-306z" />
<glyph unicode="y" horiz-adv-x="909" d="M10 1155h281l117 -612q16 -90 38 -307h5q12 143 41 299l116 620h271l-281 -1171q-53 -225 -86 -279q-66 -104 -231 -104q-55 0 -125 10v207q6 0 30.5 -2t38.5 -2q88 0 88 55q0 47 -24 147z" />
<glyph unicode="z" horiz-adv-x="796" d="M47 0v209l406 741h-398v205h697v-190l-422 -760h422v-205h-705z" />
<glyph unicode="{" horiz-adv-x="561" d="M-66 666v4q154 20 154 223v377q0 137 57.5 201.5t194.5 64.5h152v-4q-88 -20 -125 -80q-29 -51 -29 -145v-377q0 -117 -31 -172q-39 -63 -137 -86v-4q168 -25 168 -277v-352q0 -184 154 -223v-4h-134q-158 0 -217 75q-53 66 -53 228v331q0 181 -154 220z" />
<glyph unicode="|" horiz-adv-x="512" d="M154 0v1536h204v-1536h-204z" />
<glyph unicode="}" horiz-adv-x="561" d="M70 -188q154 35 153 225v350q0 117 27 172q37 74 141 105v4q-98 23 -135 88q-33 55 -33 170v379q0 195 -153 225v6h139q143 0 203.5 -62.5t60.5 -207.5v-375q0 -203 154 -223v-4q-94 -12 -129 -74q-25 -47 -25 -148v-331q0 -164 -51 -230q-57 -74 -213 -74h-139v5z" />
<glyph unicode="~" d="M53 465q125 254 273 254q72 0 209 -67.5t174 -67.5q49 0 88 53l59 98l117 -149q-70 -123 -105 -162q-72 -78 -159 -78q-68 0 -211.5 67.5t-169.5 67.5q-53 0 -97 -57q-10 -14 -61 -111z" />
<glyph unicode="&#xa1;" horiz-adv-x="681" d="M209 82q0 211 12 354q12 119 31 355h180q2 -76 27 -355q16 -190 16 -354v-430h-266v430zM209 915v271h266v-271h-266z" />
<glyph unicode="&#xa2;" d="M147 397v375q0 207 107 322q90 96 219 96q45 0 84 -12l35 196h143l-43 -225q184 -82 185 -307v-92h-267v161h-6l-125 -702q20 -20 47 -20q24 0 56 16q29 37 28 135v106h267v-30q0 -62 -7 -135q-14 -147 -104 -232.5t-227 -85.5q-45 0 -90 8l-41 -221h-142l49 258 q-168 86 -168 389zM397 281h4l115 680l-18 2q-70 0 -88 -74q-12 -45 -13 -180v-428z" />
<glyph unicode="&#xa3;" d="M72 162q100 55 156.5 159.5t56.5 225.5q0 86 -33 143h-176v121h129q-94 150 -94 340q0 201 133 315q125 106 325 107q258 0 363 -195q41 -76 41 -288h-262q-2 133 -21 178q-33 80 -141 80q-170 0 -170 -218q0 -94 94 -319h299v-121h-254q18 -47 19 -121q0 -227 -248 -389 l2 -2l4 -2q111 61 199 64h11q46 0 122 -15q55 -12 112 -22q14 -2 29 -2q79 0 172 65l57 -223q-109 -74 -258 -74q-66 0 -188.5 33t-185.5 33q-94 0 -220 -66z" />
<glyph unicode="&#xa4;" d="M18 281l86 90q-72 133 -71 262q0 141 71 264l-86 86l156 164l86 -88q127 78 252 78q137 0 260 -78l88 88l148 -164l-84 -86q74 -123 73 -262q0 -156 -73 -264l84 -90l-148 -162l-88 88q-129 -78 -252 -78q-141 0 -260 78l-86 -88zM274 634.5q0 -102.5 72 -183t170 -80.5 q100 0 170 80.5t70 183t-70 181.5t-170 79t-171 -79t-71 -181.5z" />
<glyph unicode="&#xa5;" d="M-37 1536h320l161 -403q51 -125 70 -236h4q18 111 70 236l162 403h311l-406 -883v-123h222v-102h-222v-125h222v-102h-222v-201h-286v201h-230v102h230v125h-230v102h230v123z" />
<glyph unicode="&#xa6;" horiz-adv-x="512" d="M154 0v614h204v-614h-204zM154 922v614h204v-614h-204z" />
<glyph unicode="&#xa7;" d="M76 688q0 201 176 297q-104 76 -105 256q0 133 95 225q106 106 295 107q172 0 271 -96q90 -87 90 -234q0 -15 -1 -31h-252q1 14 1 27q0 129 -130 129q-119 0 -119 -113q0 -84 95 -157l280 -221q176 -139 176 -318q0 -197 -170 -301q47 -33 82 -117t35 -157 q0 -156 -121 -257.5t-280 -101.5q-295 0 -369 252q-10 33 -14 148h256q-4 -190 149 -191q53 0 89 39t36 92q0 84 -123 180l-244 191q-111 86 -149 147q-49 78 -49 205zM309 723q0 -74 68 -129l252 -205q78 43 78 129q0 70 -82 137l-234 191q-82 -37 -82 -123z" />
<glyph unicode="&#xa8;" horiz-adv-x="681" d="M10 1319v235h260v-235h-260zM410 1319v235h262v-235h-262z" />
<glyph unicode="&#xa9;" horiz-adv-x="1699" d="M45 772q0 334 235.5 567.5t571.5 233.5q334 0 568.5 -233.5t234.5 -567.5q0 -336 -234.5 -572.5t-568.5 -236.5q-336 0 -571.5 236.5t-235.5 572.5zM197 772q0 -272 191.5 -463.5t463.5 -191.5q268 0 459.5 192.5t191.5 462.5q0 268 -191.5 458.5t-459.5 190.5 q-272 0 -463.5 -190.5t-191.5 -458.5zM440 778q0 203 120 333t321 130q147 0 250.5 -81t130.5 -224h-183q-29 158 -200 158q-123 0 -193 -97q-66 -86 -65 -215q0 -125 69 -219q76 -102 195 -102q76 0 133 47t61 119h183q-16 -141 -124 -227.5t-253 -86.5q-199 0 -322 133 t-123 332z" />
<glyph unicode="&#xaa;" horiz-adv-x="614" d="M41 596v129h532v-129h-532zM45 1051q0 104 78 163q41 31 178 84q90 35 90 88q0 14 -4 29q-10 43 -82 43q-90 0 -90 -108h-164q-2 109 49 161q61 61 213 62q156 0 213 -68q35 -45 35 -137v-410q0 -53 14 -96h-163q-12 21 -12 48q0 10 1 22h-4q-49 -88 -151 -88 q-201 0 -201 207zM219 1055q0 -90 80 -90q66 0 82 67q6 25 6 119v76l-133 -82q-35 -29 -35 -90z" />
<glyph unicode="&#xab;" d="M152 418v209l321 288v-229l-192 -162l192 -166v-231zM532 418v209l326 288v-229l-196 -162l196 -166v-231z" />
<glyph unicode="&#xac;" d="M53 596v225h920v-606h-225v381h-695z" />
<glyph unicode="&#xad;" d="M53 397v226h920v-226h-920z" />
<glyph unicode="&#x2212;" d="M53 397v226h920v-226h-920z" />
<glyph unicode="&#xae;" horiz-adv-x="1699" d="M45 770q0 332 236.5 567.5t570.5 235.5q332 0 567.5 -235.5t235.5 -567.5q0 -334 -235.5 -570.5t-567.5 -236.5q-334 0 -570.5 236.5t-236.5 570.5zM197 770q0 -272 191.5 -463.5t463.5 -191.5q270 0 460.5 191.5t190.5 463.5q0 270 -190.5 460.5t-460.5 190.5 q-272 0 -463.5 -190.5t-191.5 -460.5zM520 330v870h420q168 0 236 -43q102 -66 102 -225q0 -217 -238 -234l211 -368h-198l-193 368h-170v-368h-170zM690 827h254q80 0 117 23q47 31 47 108q0 74 -72 99q-41 14 -135 14h-211v-244z" />
<glyph unicode="&#xaf;" horiz-adv-x="681" d="M-12 1364v152h708v-152h-708z" />
<glyph unicode="&#x2c9;" horiz-adv-x="681" d="M-12 1364v152h708v-152h-708z" />
<glyph unicode="&#xb0;" horiz-adv-x="819" d="M102 1229q0 127 90.5 217t217.5 90t217 -90t90 -217t-90 -217t-217 -90t-217.5 90t-90.5 217zM264 1229q0 -61 43 -103.5t105 -42.5q59 0 101 42t42 104q0 59 -42 102t-103 43q-59 0 -102.5 -43t-43.5 -102z" />
<glyph unicode="&#xb1;" d="M53 -31v226h920v-226h-920zM53 551v225h346v275h226v-275h348v-225h-348v-275h-226v275h-346z" />
<glyph unicode="&#xb2;" horiz-adv-x="614" d="M27 614q6 98 16 156q20 109 176 260l90 88q53 51 68 78q25 39 24 98q0 111 -90 111q-68 0 -86 -45q-14 -35 -14 -131h-174v26q0 113 35 175q62 111 241 110h6q121 -2 195 -66.5t74 -173.5q0 -139 -119 -251l-147 -140q-94 -88 -97 -159h348v-136h-546z" />
<glyph unicode="&#xb3;" horiz-adv-x="614" d="M25 864v54h174q6 -109 10 -123q18 -66 94 -66q70 0 90 55q10 29 10 119q0 76 -20 98q-35 37 -168 37v136q5 0 11 -1q40 0 106 13q57 25 57 112q0 104 -88 105q-90 0 -90 -74v-63h-174q-1 12 -1 23q0 250 263 249q270 0 270 -238q0 -172 -129 -190v-4q150 -14 150 -216 q0 -296 -289 -296q-276 0 -276 270z" />
<glyph unicode="&#xb4;" horiz-adv-x="681" d="M170 1288l192 299h318l-303 -299h-207z" />
<glyph unicode="&#xb5;" d="M119 -387v1542h266v-790q0 -113 27 -154q35 -37 82 -37q82 0 108 82q14 45 14 150v749h267v-1155h-254v172h-4q-53 -172 -176 -172q-29 0 -64 10v-397h-266z" />
<glyph unicode="&#x3bc;" d="M119 -387v1542h266v-790q0 -113 27 -154q35 -37 82 -37q82 0 108 82q14 45 14 150v749h267v-1155h-254v172h-4q-53 -172 -176 -172q-29 0 -64 10v-397h-266z" />
<glyph unicode="&#xb6;" horiz-adv-x="1126" d="M47 1171q0 199 109 287q98 78 301 78h620v-242h-86v-1532h-241v1532h-140v-1532h-241v1059q-156 0 -239 96t-83 254z" />
<glyph unicode="&#xb7;" horiz-adv-x="681" d="M207 375h270v270h-270v-270z" />
<glyph unicode="&#x2219;" horiz-adv-x="681" d="M207 375h270v270h-270v-270z" />
<glyph unicode="&#xb8;" horiz-adv-x="681" d="M80 -416l39 86q104 -33 176 -32q37 0 66.5 28.5t23.5 65.5q-10 39 -41 49q-47 25 -133 -6l-43 41l121 184h108l-86 -129q31 12 68 12q90 0 139 -49q45 -35 45 -108q0 -43 -26 -95q-78 -100 -232 -100q-59 0 -225 53z" />
<glyph unicode="&#xb9;" horiz-adv-x="614" d="M102 1253v123q227 4 275 160h137v-922h-186v639h-226z" />
<glyph unicode="&#xba;" horiz-adv-x="614" d="M45 596v129h522v-129h-522zM45 1184q0 215 35 284q51 104 227 104.5t228 -104.5q35 -70 34 -284q0 -190 -45 -260q-55 -80 -215 -80q-162 0 -217 80q-47 70 -47 260zM217 1096q0 -63 10 -88q18 -41 78 -41t80 41q10 25 10 88v231q0 70 -16.5 96.5t-73.5 26.5t-72.5 -25.5 t-15.5 -97.5v-231z" />
<glyph unicode="&#xbb;" d="M166 127v231l196 174l-196 154v229l326 -288v-209zM551 127v231l194 174l-194 154v229l321 -288v-209z" />
<glyph unicode="&#xbc;" horiz-adv-x="1536" d="M41 1253v123q227 4 274 160h138v-922h-187v639h-225zM268 0l871 1511h153l-870 -1511h-154zM897 186v136l303 585h207v-585h86v-136h-86v-186h-186v186h-324zM1034 322h187v374h-4z" />
<glyph unicode="&#xbd;" horiz-adv-x="1536" d="M25 1253v123q227 4 274 160h137v-922h-186v639h-225zM221 0l871 1511h153l-870 -1511h-154zM952 0q6 98 17 156q20 109 176 260l90 88q53 51 68 78q25 39 24 98q0 111 -90 111q-68 0 -86 -46q-14 -35 -14 -131h-174v27q0 113 34 174q62 111 242 111h6q121 -2 194.5 -66.5 t73.5 -173.5q0 -139 -118 -252l-148 -139q-94 -88 -96 -160h348v-135h-547z" />
<glyph unicode="&#xbe;" horiz-adv-x="1536" d="M25 864v54h174q6 -109 10 -123q18 -66 94 -66q70 0 90 55q10 29 10 119q0 76 -20 98q-35 37 -168 37v136q5 0 11 -1q40 0 106 13q57 25 57 112q0 104 -88 105q-90 0 -90 -74v-63h-174q-1 12 -1 23q0 250 263 249q270 0 270 -238q0 -172 -129 -190v-4q150 -14 150 -216 q0 -296 -289 -296q-276 0 -276 270zM326 0l870 1511h154l-871 -1511h-153zM918 186v136l303 585h206v-585h86v-136h-86v-186h-186v186h-323zM1055 322h186v374h-4z" />
<glyph unicode="&#xbf;" d="M123 -8q0 111 35 190q29 66 106 164q59 61 142 156q74 84 73 270h240v-18q0 -41 -6 -123q-10 -123 -80 -225l-148 -187q-47 -63 -61 -104q-18 -47 -18 -125q0 -166 116 -166q88 0 115 47q18 35 22 88l5 92h254q1 -24 1 -47q0 -393 -401 -393q-182 0 -288.5 102.5 t-106.5 278.5zM461 922v264h262v-264h-262z" />
<glyph unicode="&#xc0;" horiz-adv-x="1138" d="M18 0l367 1536h387l348 -1536h-307l-76 389h-336l-75 -389h-308zM231 1968h318l192 -299h-206zM446 614h246l-78 437q-18 100 -28 213q-2 35 -11 102h-4q-8 -104 -39 -315z" />
<glyph unicode="&#xc1;" horiz-adv-x="1138" d="M18 0l367 1536h387l348 -1536h-307l-76 389h-336l-75 -389h-308zM399 1669l193 299h317l-303 -299h-207zM446 614h246l-78 437q-18 100 -28 213q-2 35 -11 102h-4q-8 -104 -39 -315z" />
<glyph unicode="&#xc2;" horiz-adv-x="1138" d="M18 0l367 1536h387l348 -1536h-307l-76 389h-336l-75 -389h-308zM188 1659l232 299h256l235 -299h-233l-129 168l-131 -168h-230zM446 614h246l-78 437q-18 100 -28 213q-2 35 -11 102h-4q-8 -104 -39 -315z" />
<glyph unicode="&#xc3;" horiz-adv-x="1138" d="M18 0l367 1536h387l348 -1536h-307l-76 389h-336l-75 -389h-308zM197 1642q8 117 88 191q68 61 145 61q57 0 158.5 -37.5t122.5 -37.5q80 0 102 86h133q-45 -248 -239 -248q-49 0 -181 45q-76 27 -106 27q-25 0 -44.5 -11.5t-51.5 -75.5h-127zM446 614h246l-78 437 q-18 100 -28 213q-2 35 -11 102h-4q-8 -104 -39 -315z" />
<glyph unicode="&#xc4;" horiz-adv-x="1138" d="M18 0l367 1536h387l348 -1536h-307l-76 389h-336l-75 -389h-308zM240 1700v235h260v-235h-260zM446 614h246l-78 437q-18 100 -28 213q-2 35 -11 102h-4q-8 -104 -39 -315zM639 1700v235h262v-235h-262z" />
<glyph unicode="&#xc5;" horiz-adv-x="1138" d="M18 0l367 1536h387l348 -1536h-307l-76 389h-336l-75 -389h-308zM352 1769q0 90 65.5 155t153.5 65q90 0 153.5 -64.5t63.5 -155t-63 -154t-153.5 -63.5t-155 64.5t-64.5 152.5zM446 614h246l-78 437q-18 100 -28 213q-2 35 -11 102h-4q-8 -104 -39 -315zM453 1769 q0 -47 35.5 -81.5t82.5 -34.5t83 35.5t36 80.5q0 47 -36 83t-83 36q-49 0 -83.5 -35t-34.5 -84z" />
<glyph unicode="&#xc6;" horiz-adv-x="1593" d="M-45 0l590 1536h991v-225h-502v-389h469v-226h-469v-471h502v-225h-788v393h-353l-133 -393h-307zM473 618h275v633h-56z" />
<glyph unicode="&#xc7;" horiz-adv-x="1138" d="M113 672v219q0 348 80 489q107 193 415 193h6q387 -2 420 -397q7 -74 7 -105q0 -8 -1 -12h-282q-20 172 -23 178q-31 104 -121 104q-145 0 -188 -149q-18 -66 -18 -238v-426q0 -334 206 -333q100 0 129 139q4 18 17 213h289l-7 -88q-12 -233 -100 -353 q-104 -143 -328 -143q-322 0 -428 201q-73 141 -73 508zM309 -416l39 86q104 -33 176 -32q37 0 67 28q25 24 24 53q0 6 -1 13q-10 39 -41 49q-21 11 -49 11q-36 0 -84 -17l-43 41l121 184h109l-86 -129q31 12 67 12q90 0 140 -49q45 -35 45 -108q0 -43 -27 -95 q-78 -100 -231 -100q-60 0 -226 53z" />
<glyph unicode="&#xc8;" d="M131 0v1536h807v-225h-520v-387h479v-226h-479v-473h520v-225h-807zM174 1968h318l192 -299h-207z" />
<glyph unicode="&#xc9;" d="M131 0v1536h807v-225h-520v-387h479v-226h-479v-473h520v-225h-807zM342 1669l193 299h317l-303 -299h-207z" />
<glyph unicode="&#xca;" d="M131 0v1536h807v-225h-520v-387h479v-226h-479v-473h520v-225h-807zM152 1659l231 299h256l235 -299h-233l-129 168l-131 -168h-229z" />
<glyph unicode="&#xcb;" d="M131 0v1536h807v-225h-520v-387h479v-226h-479v-473h520v-225h-807zM182 1700v235h260v-235h-260zM582 1700v235h262v-235h-262z" />
<glyph unicode="&#xcc;" horiz-adv-x="569" d="M-53 1968h317l193 -299h-207zM141 0v1536h287v-1536h-287z" />
<glyph unicode="&#xcd;" horiz-adv-x="569" d="M115 1669l192 299h318l-303 -299h-207zM141 0v1536h287v-1536h-287z" />
<glyph unicode="&#xce;" horiz-adv-x="569" d="M-76 1659l232 299h256l235 -299h-233l-129 168l-131 -168h-230zM141 0v1536h287v-1536h-287z" />
<glyph unicode="&#xcf;" horiz-adv-x="569" d="M-45 1700v235h260v-235h-260zM141 0v1536h287v-1536h-287zM354 1700v235h262v-235h-262z" />
<glyph unicode="&#xd0;" horiz-adv-x="1251" d="M-12 678v194h159v664h598q121 0 213.5 -78t126.5 -196q41 -137 41 -431q0 -315 -28 -456q-51 -244 -207 -334q-70 -41 -213 -41h-531v678h-159zM434 1311v-439h139v-194h-139v-453h125q182 0 232 123q41 100 40 457q0 283 -38 389q-45 117 -170 117h-189z" />
<glyph unicode="&#xd1;" horiz-adv-x="1251" d="M139 0v1536h297l223 -559q115 -289 205 -610h4q-43 586 -43 868v301h287v-1536h-299l-223 547q-109 266 -205 610h-4q45 -559 45 -868v-289h-287zM252 1642q8 117 88 191q68 61 145 61q57 0 158.5 -37.5t122.5 -37.5q80 0 102 86h133q-45 -248 -239 -248q-49 0 -180 45 q-76 27 -107 27q-25 0 -44 -11.5t-52 -75.5h-127z" />
<glyph unicode="&#xd2;" horiz-adv-x="1251" d="M125 672v219q0 346 80 487q109 195 422 195t424 -195q78 -141 77 -487v-219q0 -367 -73 -508q-106 -201 -428 -201t-428 201q-74 141 -74 508zM287 1968h317l193 -299h-207zM420 528q0 -334 207 -333q135 0 180 124q27 72 27 234v393q0 166 -23 244q-47 152 -184 151 q-145 0 -189 -149q-18 -66 -18 -238v-426z" />
<glyph unicode="&#xd3;" horiz-adv-x="1251" d="M125 672v219q0 346 80 487q109 195 422 195t424 -195q78 -141 77 -487v-219q0 -367 -73 -508q-106 -201 -428 -201t-428 201q-74 141 -74 508zM420 528q0 -334 207 -333q135 0 180 124q27 72 27 234v393q0 166 -23 244q-47 152 -184 151q-145 0 -189 -149 q-18 -66 -18 -238v-426zM455 1669l192 299h318l-303 -299h-207z" />
<glyph unicode="&#xd4;" horiz-adv-x="1251" d="M125 672v219q0 346 80 487q109 195 422 195t424 -195q78 -141 77 -487v-219q0 -367 -73 -508q-106 -201 -428 -201t-428 201q-74 141 -74 508zM264 1659l232 299h256l235 -299h-233l-129 168l-131 -168h-230zM420 528q0 -334 207 -333q135 0 180 124q27 72 27 234v393 q0 166 -23 244q-47 152 -184 151q-145 0 -189 -149q-18 -66 -18 -238v-426z" />
<glyph unicode="&#xd5;" horiz-adv-x="1251" d="M125 672v219q0 346 80 487q109 195 422 195t424 -195q78 -141 77 -487v-219q0 -367 -73 -508q-106 -201 -428 -201t-428 201q-74 141 -74 508zM252 1642q8 117 88 191q68 61 145 61q57 0 158.5 -37.5t122.5 -37.5q80 0 102 86h133q-45 -248 -239 -248q-49 0 -180 45 q-76 27 -107 27q-25 0 -44 -11.5t-52 -75.5h-127zM420 528q0 -334 207 -333q135 0 180 124q27 72 27 234v393q0 166 -23 244q-47 152 -184 151q-145 0 -189 -149q-18 -66 -18 -238v-426z" />
<glyph unicode="&#xd6;" horiz-adv-x="1251" d="M125 672v219q0 346 80 487q109 195 422 195t424 -195q78 -141 77 -487v-219q0 -367 -73 -508q-106 -201 -428 -201t-428 201q-74 141 -74 508zM295 1700v235h260v-235h-260zM420 528q0 -334 207 -333q135 0 180 124q27 72 27 234v393q0 166 -23 244q-47 152 -184 151 q-145 0 -189 -149q-18 -66 -18 -238v-426zM694 1700v235h262v-235h-262z" />
<glyph unicode="&#xd7;" d="M53 215l295 295l-295 295l160 160l295 -295l305 305l160 -160l-305 -305l305 -305l-160 -160l-305 305l-295 -295z" />
<glyph unicode="&#xd8;" horiz-adv-x="1251" d="M74 -16l121 192q-70 139 -70 496v219q0 346 80 487q109 195 422 195q127 0 196 -19q94 -27 168 -104l90 145l103 -69l-119 -191q63 -129 63 -444v-219q0 -367 -73 -508q-106 -201 -428 -201q-135 0 -215 23.5t-144 87.5l-94 -152zM420 563l385 615q-12 164 -178 163 q-145 0 -187 -155q-20 -80 -20 -338v-285zM440 352q31 -158 187 -157q143 0 186 149q20 74 21 272q0 322 -3 363z" />
<glyph unicode="&#xd9;" horiz-adv-x="1251" d="M139 465v1071h287v-1047q0 -141 29 -202q45 -92 176 -92q125 0 168 92q29 61 28 202v1047h287v-1071q0 -264 -102 -379q-111 -123 -383 -123q-274 0 -387 123q-103 115 -103 379zM287 1968h317l193 -299h-207z" />
<glyph unicode="&#xda;" horiz-adv-x="1251" d="M139 465v1071h287v-1047q0 -141 29 -202q45 -92 176 -92q125 0 168 92q29 61 28 202v1047h287v-1071q0 -264 -102 -379q-111 -123 -383 -123q-274 0 -387 123q-103 115 -103 379zM455 1669l192 299h318l-303 -299h-207z" />
<glyph unicode="&#xdb;" horiz-adv-x="1251" d="M139 465v1071h287v-1047q0 -141 29 -202q45 -92 176 -92q125 0 168 92q29 61 28 202v1047h287v-1071q0 -264 -102 -379q-111 -123 -383 -123q-274 0 -387 123q-103 115 -103 379zM264 1659l232 299h256l235 -299h-233l-129 168l-131 -168h-230z" />
<glyph unicode="&#xdc;" horiz-adv-x="1251" d="M139 465v1071h287v-1047q0 -141 29 -202q45 -92 176 -92q125 0 168 92q29 61 28 202v1047h287v-1071q0 -264 -102 -379q-111 -123 -383 -123q-274 0 -387 123q-103 115 -103 379zM295 1700v235h260v-235h-260zM694 1700v235h262v-235h-262z" />
<glyph unicode="&#xdd;" horiz-adv-x="1138" d="M25 1536h313l162 -403q51 -129 67 -236h4q16 92 95 291l137 348h313l-405 -883v-653h-287v653zM399 1669l193 299h317l-303 -299h-207z" />
<glyph unicode="&#xde;" horiz-adv-x="1138" d="M139 0v1536h287v-322h299q190 0 283 -137q76 -113 75 -299q0 -250 -143 -364q-117 -92 -322 -92h-192v-322h-287zM426 547h154q209 0 208 239q0 125 -55 168q-47 35 -176 35h-131v-442z" />
<glyph unicode="&#xdf;" d="M123 0v1092q0 207 51 309q88 172 338 172q190 0 291 -125q84 -104 84 -262q0 -244 -162 -293v-4q182 -47 186 -430v-15q0 -180 -47 -299q-68 -176 -231 -176q-68 0 -150 31v188q29 -12 60 -12q104 2 102 205l-2 240q-2 152 -141 157v195q74 6 94 26q31 27 31 117v125 q0 127 -119 127t-119 -233v-1135h-266z" />
<glyph unicode="&#xe0;" d="M86 315q0 176 119 275q66 51 276 139q137 57 137 148q0 20 -6 45q-14 59 -125 59q-84 0 -114 -45q-25 -34 -25 -111v-12h-254q-2 182 76 268q94 104 328 105q242 0 325 -115q55 -72 56 -227v-682q0 -78 22 -162h-252q-18 37 -17 89q0 14 1 30h-4q-96 -150 -234 -150 q-160 0 -234.5 84t-74.5 262zM174 1587h318l192 -299h-207zM352 322q0 -147 125 -148q102 0 127 113q8 39 8 196v125q-74 -45 -215 -147q-45 -37 -45 -139z" />
<glyph unicode="&#xe1;" d="M86 315q0 176 119 275q66 51 276 139q137 57 137 148q0 20 -6 45q-14 59 -125 59q-84 0 -114 -45q-25 -34 -25 -111v-12h-254q-2 182 76 268q94 104 328 105q242 0 325 -115q55 -72 56 -227v-682q0 -78 22 -162h-252q-18 37 -17 89q0 14 1 30h-4q-96 -150 -234 -150 q-160 0 -234.5 84t-74.5 262zM342 1288l193 299h317l-303 -299h-207zM352 322q0 -147 125 -148q102 0 127 113q8 39 8 196v125q-74 -45 -215 -147q-45 -37 -45 -139z" />
<glyph unicode="&#xe2;" d="M86 315q0 176 119 275q66 51 276 139q137 57 137 148q0 20 -6 45q-14 59 -125 59q-84 0 -114 -45q-25 -34 -25 -111v-12h-254q-2 182 76 268q94 104 328 105q242 0 325 -115q55 -72 56 -227v-682q0 -78 22 -162h-252q-18 37 -17 89q0 14 1 30h-4q-96 -150 -234 -150 q-160 0 -234.5 84t-74.5 262zM152 1278l231 299h256l235 -299h-233l-129 168l-131 -168h-229zM352 322q0 -147 125 -148q102 0 127 113q8 39 8 196v125q-74 -45 -215 -147q-45 -37 -45 -139z" />
<glyph unicode="&#xe3;" d="M86 315q0 176 119 275q66 51 276 139q137 57 137 148q0 20 -6 45q-14 59 -125 59q-84 0 -114 -45q-25 -34 -25 -111v-12h-254q-2 182 76 268q94 104 328 105q242 0 325 -115q55 -72 56 -227v-682q0 -78 22 -162h-252q-18 37 -17 89q0 14 1 30h-4q-96 -150 -234 -150 q-160 0 -234.5 84t-74.5 262zM139 1262q8 117 88 190q68 61 146 61q57 0 158.5 -37.5t121.5 -37.5q80 0 103 86h133q-45 -248 -240 -248q-49 0 -180 45q-76 27 -107 27q-25 0 -44 -11.5t-52 -74.5h-127zM352 322q0 -147 125 -148q102 0 127 113q8 39 8 196v125 q-74 -45 -215 -147q-45 -37 -45 -139z" />
<glyph unicode="&#xe4;" d="M86 315q0 176 119 275q66 51 276 139q137 57 137 148q0 20 -6 45q-14 59 -125 59q-84 0 -114 -45q-25 -34 -25 -111v-12h-254q-2 182 76 268q94 104 328 105q242 0 325 -115q55 -72 56 -227v-682q0 -78 22 -162h-252q-18 37 -17 89q0 14 1 30h-4q-96 -150 -234 -150 q-160 0 -234.5 84t-74.5 262zM182 1319v235h260v-235h-260zM352 322q0 -147 125 -148q102 0 127 113q8 39 8 196v125q-74 -45 -215 -147q-45 -37 -45 -139zM582 1319v235h262v-235h-262z" />
<glyph unicode="&#xe5;" d="M86 315q0 176 119 275q66 51 276 139q137 57 137 148q0 20 -6 45q-14 59 -125 59q-84 0 -114 -45q-25 -34 -25 -111v-12h-254q-2 182 76 268q94 104 328 105q242 0 325 -115q55 -72 56 -227v-682q0 -78 22 -162h-252q-18 37 -17 89q0 14 1 30h-4q-96 -150 -234 -150 q-160 0 -234.5 84t-74.5 262zM295 1511q0 90 65.5 155t153.5 65q90 0 153.5 -64.5t63.5 -155t-63.5 -154t-153.5 -63.5t-154.5 64.5t-64.5 152.5zM352 322q0 -147 125 -148q102 0 127 113q8 39 8 196v125q-74 -45 -215 -147q-45 -37 -45 -139zM395 1511q0 -47 36 -81.5 t83 -34.5t83 35.5t36 80.5q0 47 -36 83t-83 36q-49 0 -84 -35t-35 -84z" />
<glyph unicode="&#xe6;" horiz-adv-x="1478" d="M90 293q0 141 44 214t169 142l215 99q96 49 96 133q0 100 -122 100q-84 0 -111 -43q-16 -31 -21 -119h-266v11q0 79 27 167q59 188 379 189q156 0 266 -74q92 74 240 74q369 0 368 -359v-297h-502v-102q0 -123 11 -164q25 -90 112 -90q102 0 113 111v108h268q0 -13 1 -25 q0 -399 -382 -399q-180 0 -278 121q-78 -121 -268 -121q-178 0 -265 70q-94 78 -94 254zM356 328q0 -154 107 -154q143 0 143 199v233l-166 -106q-84 -66 -84 -172zM872 735h236v115q0 131 -117 131q-104 0 -119 -131v-115z" />
<glyph unicode="&#xe7;" horiz-adv-x="909" d="M98 401v375q0 410 361 410q186 0 282 -105q82 -90 82 -235v-92h-266v129q0 98 -92 98q-70 0 -88 -76q-12 -45 -12 -182v-272q0 -139 4 -166q18 -100 96 -111q55 2 74 51q10 27 18 119v107h266v-107q0 -375 -364 -375q-361 0 -361 432zM195 -416l38 86q104 -33 177 -32 q37 0 66 28q25 24 25 53q0 6 -1 13q-10 39 -41 49q-21 11 -50 11q-36 0 -83 -17l-43 41l120 184h109l-86 -129q31 12 68 12q90 0 139 -49q45 -35 45 -108q0 -43 -27 -95q-78 -100 -231 -100q-59 0 -225 53z" />
<glyph unicode="&#xe8;" d="M106 455v303q0 428 390 428q256 0 344 -135q66 -102 65 -373v-156h-532v-168q0 -180 139 -180q72 0 99 52q24 45 24 137v28h266q1 -17 1 -34q0 -388 -370 -388q-229 0 -327.5 115t-98.5 371zM174 1587h318l192 -299h-207zM373 727h266v100q0 88 -29.5 121t-109.5 33 q-88 0 -113 -63q-14 -35 -14 -144v-47z" />
<glyph unicode="&#xe9;" d="M106 455v303q0 428 390 428q256 0 344 -135q66 -102 65 -373v-156h-532v-168q0 -180 139 -180q72 0 99 52q24 45 24 137v28h266q1 -17 1 -34q0 -388 -370 -388q-229 0 -327.5 115t-98.5 371zM342 1288l193 299h317l-303 -299h-207zM373 727h266v100q0 88 -29.5 121 t-109.5 33q-88 0 -113 -63q-14 -35 -14 -144v-47z" />
<glyph unicode="&#xea;" d="M106 455v303q0 428 390 428q256 0 344 -135q66 -102 65 -373v-156h-532v-168q0 -180 139 -180q72 0 99 52q24 45 24 137v28h266q1 -17 1 -34q0 -388 -370 -388q-229 0 -327.5 115t-98.5 371zM152 1278l231 299h256l235 -299h-233l-129 168l-131 -168h-229zM373 727h266 v100q0 88 -29.5 121t-109.5 33q-88 0 -113 -63q-14 -35 -14 -144v-47z" />
<glyph unicode="&#xeb;" d="M106 455v303q0 428 390 428q256 0 344 -135q66 -102 65 -373v-156h-532v-168q0 -180 139 -180q72 0 99 52q24 45 24 137v28h266q1 -17 1 -34q0 -388 -370 -388q-229 0 -327.5 115t-98.5 371zM182 1319v235h260v-235h-260zM373 727h266v100q0 88 -29.5 121t-109.5 33 q-88 0 -113 -63q-14 -35 -14 -144v-47zM582 1319v235h262v-235h-262z" />
<glyph unicode="&#xec;" horiz-adv-x="569" d="M-53 1587h317l193 -299h-207zM152 0v1155h266v-1155h-266z" />
<glyph unicode="&#xed;" horiz-adv-x="569" d="M115 1288l192 299h318l-303 -299h-207zM152 0v1155h266v-1155h-266z" />
<glyph unicode="&#xee;" horiz-adv-x="569" d="M-96 1278l231 299h256l236 -299h-234l-129 168l-131 -168h-229zM152 0v1155h266v-1155h-266z" />
<glyph unicode="&#xef;" horiz-adv-x="569" d="M-45 1319v235h260v-235h-260zM152 0v1155h266v-1155h-266zM354 1319v235h262v-235h-262z" />
<glyph unicode="&#xf0;" d="M94 537q2 358 53 473q82 176 355 176q66 0 106 -8q-33 98 -98 131l-133 -92l-90 94l57 41q-61 12 -170 18v164q248 -4 379 -37l135 92l90 -94l-82 -57q106 -76 156 -260q56 -205 56 -590q0 -26 -1 -53q-2 -317 -76 -433q-84 -133 -329 -133q-252 0 -336 133 q-72 112 -72 417v18zM360 762v-385q0 -117 23 -154q29 -49 119 -49q86 0 112 49q20 37 21 154v385q0 109 -17 149q-29 70 -116 70q-94 0 -123 -70q-19 -40 -19 -149z" />
<glyph unicode="&#xf1;" d="M125 0v1155h266v-119h4q68 150 240 150q121 0 190 -70q76 -78 76 -225v-891h-266v770q0 96 -19 135q-25 53 -94 56h-7q-124 0 -124 -213v-748h-266zM139 1262q8 117 88 190q68 61 146 61q57 0 158.5 -37.5t121.5 -37.5q80 0 103 86h133q-45 -248 -240 -248q-49 0 -180 45 q-76 27 -107 27q-25 0 -44 -11.5t-52 -74.5h-127z" />
<glyph unicode="&#xf2;" d="M109 537q2 358 53 473q82 176 354 176q268 0 348 -176q49 -113 51 -473q0 -9 1 -18q0 -305 -70 -417q-84 -133 -330 -133q-252 0 -336 133q-72 112 -72 417q1 9 1 18zM174 1587h318l192 -299h-207zM375 377q0 -117 22 -154q29 -49 119 -49q86 0 113 49q20 37 20 154v385 q0 109 -16 149q-29 70 -117 70q-94 0 -123 -70q-18 -41 -18 -149v-385z" />
<glyph unicode="&#xf3;" d="M109 537q2 358 53 473q82 176 354 176q268 0 348 -176q49 -113 51 -473q0 -9 1 -18q0 -305 -70 -417q-84 -133 -330 -133q-252 0 -336 133q-72 112 -72 417q1 9 1 18zM342 1288l193 299h317l-303 -299h-207zM375 377q0 -117 22 -154q29 -49 119 -49q86 0 113 49 q20 37 20 154v385q0 109 -16 149q-29 70 -117 70q-94 0 -123 -70q-18 -41 -18 -149v-385z" />
<glyph unicode="&#xf4;" d="M109 537q2 358 53 473q82 176 354 176q268 0 348 -176q49 -113 51 -473q0 -9 1 -18q0 -305 -70 -417q-84 -133 -330 -133q-252 0 -336 133q-72 112 -72 417q1 9 1 18zM152 1278l231 299h256l235 -299h-233l-129 168l-131 -168h-229zM375 377q0 -117 22 -154 q29 -49 119 -49q86 0 113 49q20 37 20 154v385q0 109 -16 149q-29 70 -117 70q-94 0 -123 -70q-18 -41 -18 -149v-385z" />
<glyph unicode="&#xf5;" d="M109 537q2 358 53 473q82 176 354 176q268 0 348 -176q49 -113 51 -473q0 -9 1 -18q0 -305 -70 -417q-84 -133 -330 -133q-252 0 -336 133q-72 112 -72 417q1 9 1 18zM139 1262q8 117 88 190q68 61 146 61q57 0 158.5 -37.5t121.5 -37.5q80 0 103 86h133 q-45 -248 -240 -248q-49 0 -180 45q-76 27 -107 27q-25 0 -44 -11.5t-52 -74.5h-127zM375 377q0 -117 22 -154q29 -49 119 -49q86 0 113 49q20 37 20 154v385q0 109 -16 149q-29 70 -117 70q-94 0 -123 -70q-18 -41 -18 -149v-385z" />
<glyph unicode="&#xf6;" d="M109 537q2 358 53 473q82 176 354 176q268 0 348 -176q49 -113 51 -473q0 -9 1 -18q0 -305 -70 -417q-84 -133 -330 -133q-252 0 -336 133q-72 112 -72 417q1 9 1 18zM182 1319v235h260v-235h-260zM375 377q0 -117 22 -154q29 -49 119 -49q86 0 113 49q20 37 20 154v385 q0 109 -16 149q-29 70 -117 70q-94 0 -123 -70q-18 -41 -18 -149v-385zM582 1319v235h262v-235h-262z" />
<glyph unicode="&#xf7;" d="M53 397v226h920v-226h-920zM381 12v236h260v-236h-260zM381 772v236h260v-236h-260z" />
<glyph unicode="&#xf8;" d="M14 -49l142 203q-47 118 -48 362q0 10 1 21q2 358 55 473q80 176 352 176q190 0 283 -82l108 160l101 -72l-136 -203q43 -109 43 -452q0 -324 -69 -437q-81 -131 -320 -131h-8q-199 2 -285 72l-110 -160zM375 449l270 399q-10 133 -129 133q-94 0 -123 -70 q-18 -41 -18 -149v-313zM379 291q6 -63 35.5 -90t101.5 -27q86 0 113 49q20 37 20 154v315z" />
<glyph unicode="&#xf9;" d="M119 270v885h266v-790q0 -113 27 -154q35 -37 82 -37q82 0 108 82q14 45 14 150v749h267v-1155h-254v172h-4q-59 -201 -248 -203q-150 0 -209 78q-49 67 -49 223zM174 1587h318l192 -299h-207z" />
<glyph unicode="&#xfa;" d="M119 270v885h266v-790q0 -113 27 -154q35 -37 82 -37q82 0 108 82q14 45 14 150v749h267v-1155h-254v172h-4q-59 -201 -248 -203q-150 0 -209 78q-49 67 -49 223zM342 1288l193 299h317l-303 -299h-207z" />
<glyph unicode="&#xfb;" d="M119 270v885h266v-790q0 -113 27 -154q35 -37 82 -37q82 0 108 82q14 45 14 150v749h267v-1155h-254v172h-4q-59 -201 -248 -203q-150 0 -209 78q-49 67 -49 223zM152 1298l231 299h256l235 -299h-233l-129 168l-131 -168h-229z" />
<glyph unicode="&#xfc;" d="M119 270v885h266v-790q0 -113 27 -154q35 -37 82 -37q82 0 108 82q14 45 14 150v749h267v-1155h-254v172h-4q-59 -201 -248 -203q-150 0 -209 78q-49 67 -49 223zM182 1319v235h260v-235h-260zM582 1319v235h262v-235h-262z" />
<glyph unicode="&#xfd;" horiz-adv-x="909" d="M10 1155h281l117 -612q16 -90 38 -307h5q12 143 41 299l116 620h271l-281 -1171q-53 -225 -86 -279q-66 -104 -231 -104q-55 0 -125 10v207q6 0 30.5 -2t38.5 -2q88 0 88 55q0 47 -24 147zM285 1288l192 299h318l-303 -299h-207z" />
<glyph unicode="&#xfe;" d="M119 -387v1923h266v-502h4q66 152 223 152h9q137 -2 202 -90q74 -96 74 -324v-418q0 -385 -268 -385h-8q-162 2 -244 150h-4v-506h-254zM385 379q0 -205 129 -205q117 0 117 199v385q0 117 -15 155q-23 68 -106 68q-125 0 -125 -256v-346z" />
<glyph unicode="&#xff;" horiz-adv-x="909" d="M10 1155h281l117 -612q16 -90 38 -307h5q12 143 41 299l116 620h271l-281 -1171q-53 -225 -86 -279q-66 -104 -231 -104q-55 0 -125 10v207q6 0 30.5 -2t38.5 -2q88 0 88 55q0 47 -24 147zM125 1319v235h260v-235h-260zM524 1319v235h262v-235h-262z" />
<glyph unicode="&#x131;" horiz-adv-x="569" d="M152 0v1155h266v-1155h-266z" />
<glyph unicode="&#x152;" horiz-adv-x="1705" d="M123 891v13q0 268 84 439q113 229 360 230q197 0 277 -158h4v4l4 -4v121h768v-225h-506v-389h469v-226h-469v-471h506v-225h-776v150h-4q-49 -84 -142 -140q-76 -47 -127 -47q-223 0 -333 164q-84 127 -107 369q-6 73 -8 395zM412 760q0 -256 16 -340q41 -225 195 -225 q125 0 170 77q35 57 34 191v633q0 247 -178 246q-10 0 -20 -1q-158 -10 -201 -237q-16 -86 -16 -344z" />
<glyph unicode="&#x153;" horiz-adv-x="1478" d="M94 537q2 360 53 475q80 174 343 174h12q133 -2 246 -117q82 117 282 117q184 0 260 -107q98 -137 99 -336v-215h-506v-118q0 -139 24.5 -187.5t87.5 -48.5q127 0 127 133v86h267q2 -227 -92.5 -325.5t-323.5 -98.5q-139 0 -225 109q-100 -106 -246 -109h-15 q-238 0 -321 131q-72 114 -72 419v18zM360 762v-322q0 -168 31 -223q23 -43 94.5 -43t98.5 49q33 61 32 234v338q0 104 -27.5 145t-103.5 41q-70 0 -97.5 -50t-27.5 -169zM879 733h243v72q0 94 -27.5 135t-97.5 41q-78 0 -102 -72q-16 -43 -16 -135v-41z" />
<glyph unicode="&#x178;" horiz-adv-x="1138" d="M25 1536h313l162 -403q51 -129 67 -236h4q16 92 95 291l137 348h313l-405 -883v-653h-287v653zM240 1700v235h260v-235h-260zM639 1700v235h262v-235h-262z" />
<glyph unicode="&#x2c6;" horiz-adv-x="681" d="M-20 1319l231 299h256l235 -299h-233l-129 168l-131 -168h-229z" />
<glyph unicode="&#x2da;" horiz-adv-x="681" d="M123 1511q0 90 65.5 155t153.5 65q90 0 153.5 -64.5t63.5 -155t-63.5 -154t-153.5 -63.5t-154.5 64.5t-64.5 152.5zM223 1511q0 -47 36 -81.5t83 -34.5t83 35.5t36 80.5q0 47 -36 83t-83 36q-49 0 -84 -35t-35 -84z" />
<glyph unicode="&#x2dc;" horiz-adv-x="681" d="M-33 1303q8 117 88 190q68 61 146 61q57 0 158.5 -37.5t121.5 -37.5q80 0 103 86h133q-45 -248 -240 -248q-49 0 -180 45q-76 27 -107 27q-25 0 -44 -11.5t-52 -74.5h-127z" />
<glyph unicode="&#x2000;" horiz-adv-x="993" />
<glyph unicode="&#x2001;" horiz-adv-x="1988" />
<glyph unicode="&#x2002;" horiz-adv-x="993" />
<glyph unicode="&#x2003;" horiz-adv-x="1988" />
<glyph unicode="&#x2004;" horiz-adv-x="661" />
<glyph unicode="&#x2005;" horiz-adv-x="495" />
<glyph unicode="&#x2006;" horiz-adv-x="329" />
<glyph unicode="&#x2007;" horiz-adv-x="329" />
<glyph unicode="&#x2008;" horiz-adv-x="247" />
<glyph unicode="&#x2009;" horiz-adv-x="397" />
<glyph unicode="&#x200a;" horiz-adv-x="108" />
<glyph unicode="&#x2010;" horiz-adv-x="681" d="M98 522v236h488v-236h-488z" />
<glyph unicode="&#x2011;" horiz-adv-x="681" d="M98 522v236h488v-236h-488z" />
<glyph unicode="&#x2012;" horiz-adv-x="681" d="M98 522v236h488v-236h-488z" />
<glyph unicode="&#x2013;" d="M0 530v226h1024v-226h-1024z" />
<glyph unicode="&#x2014;" horiz-adv-x="2048" d="M0 530v226h2048v-226h-2048z" />
<glyph unicode="&#x2018;" horiz-adv-x="569" d="M156 1014v243q0 141 54 215t193 97v-94q-132 -19 -131 -176v-19h131v-266h-247z" />
<glyph unicode="&#x2019;" horiz-adv-x="569" d="M166 981v94q139 20 131 195h-131v266h248v-244q0 -141 -54.5 -214.5t-193.5 -96.5z" />
<glyph unicode="&#x201a;" horiz-adv-x="569" d="M178 4v266h246v-243q0 -143 -53.5 -212t-192.5 -98v95q78 16 109 65q21 35 21 103q0 11 -1 24h-129z" />
<glyph unicode="&#x201c;" d="M178 1014v243q0 141 54.5 215t193.5 97v-94q-132 -19 -132 -176q0 -9 1 -19h131v-266h-248zM582 1014v243q0 141 54 215t193 97v-94q-132 -19 -131 -176v-19h131v-266h-247z" />
<glyph unicode="&#x201d;" d="M195 981v94q132 19 131 176v19h-131v266h247v-244q0 -141 -54 -214.5t-193 -96.5zM598 981v94q132 19 132 176q0 9 -1 19h-131v266h248v-244q0 -141 -54.5 -214.5t-193.5 -96.5z" />
<glyph unicode="&#x201e;" d="M197 4v266h245v-243q0 -143 -53 -212t-192 -98v95q78 16 108 65q21 35 21 103v24h-129zM600 4v266h246v-243q0 -143 -53.5 -212t-192.5 -98v95q76 18 107 61q23 41 22 131h-129z" />
<glyph unicode="&#x2022;" horiz-adv-x="860" d="M45 768q0 158 111.5 270.5t271.5 112.5t273.5 -112.5t113.5 -270.5q0 -160 -113.5 -273.5t-273.5 -113.5t-271.5 113.5t-111.5 273.5z" />
<glyph unicode="&#x2026;" horiz-adv-x="2048" d="M207 0v270h270v-270h-270zM889 0v270h270v-270h-270zM1571 0v270h270v-270h-270z" />
<glyph unicode="&#x202f;" horiz-adv-x="397" />
<glyph unicode="&#x2039;" horiz-adv-x="569" d="M119 418v209l321 288v-229l-194 -154l194 -174v-231z" />
<glyph unicode="&#x203a;" horiz-adv-x="569" d="M129 127v231l193 166l-193 162v229l322 -288v-209z" />
<glyph unicode="&#x205f;" horiz-adv-x="495" />
<glyph unicode="&#x2122;" horiz-adv-x="1761" d="M2 1376v160h633v-160h-236v-667h-163v667h-234zM723 709v827h264l168 -489l166 489h264v-827h-164v667h-4l-215 -667h-96l-215 667h-4v-667h-164z" />
<glyph unicode="&#xe000;" horiz-adv-x="1155" d="M0 1155h1155v-1155h-1155v1155z" />
<glyph unicode="&#xfb01;" horiz-adv-x="1138" d="M43 961v194h102v115q0 152 68 211q61 55 213 55h100v-213q-41 12 -59 12q-55 0 -55 -45v-135h114v-194h-114v-961h-267v961h-102zM721 0v1155h266v-1155h-266zM721 1294v242h266v-242h-266z" />
<glyph unicode="&#xfb02;" horiz-adv-x="1138" d="M43 961v194h102v115q0 152 68 211q61 55 213 55h100v-213q-41 12 -59 12q-55 0 -55 -45v-135h114v-194h-114v-961h-267v961h-102zM721 0v1536h266v-1536h-266z" />
<glyph unicode="&#xfb03;" horiz-adv-x="1708" d="M43 961v194h102v115q0 152 68 211q61 55 213 55h100v-213q-41 12 -59 12q-55 0 -55 -45v-135h114v-194h-114v-961h-267v961h-102zM612 961v194h103v115q0 152 67 211q61 55 213 55h101v-213q-41 12 -60 12q-55 0 -55 -45v-135h115v-194h-115v-961h-266v961h-103zM1290 0 v1155h266v-1155h-266zM1290 1294v242h266v-242h-266z" />
<glyph unicode="&#xfb04;" horiz-adv-x="1708" d="M43 961v194h102v115q0 152 68 211q61 55 213 55h100v-213q-41 12 -59 12q-55 0 -55 -45v-135h114v-194h-114v-961h-267v961h-102zM612 961v194h103v115q0 152 67 211q61 55 213 55h101v-213q-41 12 -60 12q-55 0 -55 -45v-135h115v-194h-115v-961h-266v961h-103zM1290 0 v1536h266v-1536h-266z" />
</font>
</defs>
</svg>
